<svg xmlns="http://www.w3.org/2000/svg" viewBox="0 0 500 500"><g id="freepik--background-complete--inject-44"><path d="M453.88,140.28H344.12s10.88-29.72,27.63-29.72,22,20.51,22,20.51,11.3-11.14,20.59-11.14,17.35,14.73,17.35,14.73S444.8,126.74,453.88,140.28Z" style="fill:#ebebeb"></path><path d="M392.44,81.49H341.15s11.46-16.6,20.49-16.6S373.34,76,373.34,76s6.37-5.17,12.28-4.25S392.44,81.49,392.44,81.49Z" style="fill:#ebebeb"></path><path d="M97.42,264.69H46.12s11.46-16.61,20.49-16.61,11.7,11.07,11.7,11.07,6.37-5.17,12.28-4.24S97.42,264.69,97.42,264.69Z" style="fill:#ebebeb"></path><path d="M138,159H86.66s11.46-16.6,20.49-16.6,11.7,11.07,11.7,11.07,6.37-5.17,12.28-4.25S138,159,138,159Z" style="fill:#ebebeb"></path><path d="M154,111.54H54S67.72,81,82.35,79.08,104,101.78,104,101.78s9.44-8.7,16.86-8.7S134,104.54,134,104.54,148.86,96.69,154,111.54Z" style="fill:#ebebeb"></path><path d="M248.91,55.86h-67.5S193,33.73,205.58,33.41s19.19,16.75,19.19,16.75S244.34,34.45,248.91,55.86Z" style="fill:#ebebeb"></path><path d="M441.83,235.79H374.34s11.59-22.13,24.17-22.45,19.19,16.75,19.19,16.75S437.26,214.38,441.83,235.79Z" style="fill:#ebebeb"></path></g><g id="freepik--Shadow--inject-44"><ellipse cx="250" cy="429.76" rx="202.9" ry="30" style="fill:#ebebeb"></ellipse></g><g id="freepik--Plants--inject-44"><path d="M86.68,298c-8.16.28-17.26.75-24-4.54-6.24-4.88-11.8-12.16-11-20.52.24-2.38.79-3.85,3.34-2.83,3.89,1.55,6.89,5.84,9.58,8.85A82.64,82.64,0,0,0,75.93,289.7c2.9,2.23,6,4.15,9,6.31.37.26.74.53,1.11.82.14.1.28.2.42.32h.23a.43.43,0,0,1,.34.18.35.35,0,0,1,.06.14A.43.43,0,0,1,86.68,298Z" style="fill:#000000"></path><path d="M87.08,297.47c-7.17-.13-14.91.2-20.64-4.67a33,33,0,0,1-6.66-8.09c-.83-1.35-3.32-5.37-2.29-7,1.87-2.9,10.41,8.91,11.59,10A35,35,0,0,0,84.92,296c.37.26.74.53,1.11.82a39,39,0,0,1-11.89-4.57c-5.09-3-7.92-7.52-11.91-11.71-.86-.91-3.45-4-4.43-2.06-.64,1.25,1.76,5.19,2.27,6a33.14,33.14,0,0,0,6.3,7.69c5.72,5,13.42,4.82,20.65,5.12A.35.35,0,0,1,87.08,297.47Z" style="fill:#fff"></path><path d="M91.18,303c-.07.32-.13.63-.2.95,0,0,0,0,0,0a.22.22,0,0,1-.15.16.34.34,0,0,1-.43-.16.34.34,0,0,1,0-.2.93.93,0,0,1,0-.13l.09-.27,0,0s0-.06,0-.09c-1.45-5.4-2-11-3.53-16.41-1.45-5.15-3.26-10.21-4.31-15.47-.66-3.32-3-20,4.37-17.89,3.25.92,5.47,5.63,6.71,8.44a34.47,34.47,0,0,1,2.7,12C97,284,93.23,293.25,91.18,303Z" style="fill:#000000"></path><path d="M93.53,282.26A40.1,40.1,0,0,0,92.35,271c-.33-1.28-1.92-7.4-4-7.25-1.34.09-1.56,2.73-1.68,3.6-.47,3.71.74,7.49,1.46,11.09a152.8,152.8,0,0,1,2.69,22.23c-.06.47-.14.95-.19,1.42s-.1.78-.15,1.18c0,.13,0,.26,0,.4a2.79,2.79,0,0,0,0,.32.35.35,0,0,0,.43.16c0-.3.09-.61.13-.91,0,.25,0,.49,0,.75,0,0,0,0,0,0,0-.26.1-.52.16-.77l0-.18c0-.41,0-.83,0-1.24C92.08,295.26,93.36,288.81,93.53,282.26Zm-2.48,16.8c-.21-4.36-.64-8.71-1.26-13-.49-3.49-1.15-6.95-1.88-10.39a34.4,34.4,0,0,1-.93-5.89c-.07-1.52.15-7.13,3-3.65,2.09,2.53,2.59,7.9,2.85,11a56.61,56.61,0,0,1-.2,10.33C92.27,291.32,91.63,295.19,91.05,299.06Z" style="fill:#fff"></path><path d="M95.57,325.37h0l-.3,0c-7.45-.37-17.39.33-23.6-4.61-4.58-3.64-9.08-10.85-7.63-17,1.65-6.89,11,1.38,13.41,3.37A227.17,227.17,0,0,1,95.72,325a.6.6,0,0,1,.09.13l0,0C95.89,325.26,95.74,325.33,95.57,325.37Z" style="fill:#000000"></path><path d="M95.83,325.15c-.43-.27-.86-.53-1.29-.81-4.91-3.09-9.69-6.39-14.28-9.91-1.16-.89-9.56-8.36-10.82-5.69-.76,1.61,2,4.9,2.89,6A23,23,0,0,0,78,319.81c5,3.1,11,3.77,16.63,5.26a7.69,7.69,0,0,1,.79.21l.14.08h0C95.74,325.33,95.89,325.26,95.83,325.15ZM81.07,320.9a23.14,23.14,0,0,1-6.44-4.35c-1.25-1.19-5.66-5.65-4.49-7.49.62-1,1.14-.45,2.33.13a14.42,14.42,0,0,1,1.58.91c1.25.82,2.4,1.78,3.57,2.71,2,1.64,4.12,3.22,6.24,4.76,3.47,2.53,7,4.91,10.68,7.17C90.06,323.37,85.33,322.82,81.07,320.9Z" style="fill:#fff"></path><path d="M109.19,310a44.1,44.1,0,0,1-12.78,22.33.34.34,0,0,1-.14.08.34.34,0,0,1-.38-.14.32.32,0,0,1,0-.43l.38-.38c1.23-10.14,2.59-20.22,3.64-30.39.24-2.4,2.12-17.65,6.8-15.17,2.9,1.54,3.09,7.79,3.34,10.59A44.45,44.45,0,0,1,109.19,310Z" style="fill:#000000"></path><path d="M106.49,296.41c-.26-.85-.7-1.72-1.65-1.13-1.82,1.14-2.54,8.31-2.84,10.29-1.25,8.19-3.19,16.05-5.16,24.06-.17.67-.33,1.35-.5,2l-.45.61a.34.34,0,0,0,.38.14l.06-.21c.2-.26.42-.54.61-.82h0A52,52,0,0,0,104.32,317a49,49,0,0,0,2.18-10C106.85,303.82,107.43,299.48,106.49,296.41Zm-9.58,34.42c-.08.14-.19.26-.27.4.08-.28.17-.54.25-.82a147.25,147.25,0,0,0,4.56-18.61c.55-3.2.89-6.43,1.55-9.6.27-1.34.93-5.17,2-5.79s1.09.87,1.21,1.73c.07.62.07,1.74.08,2.33A51.37,51.37,0,0,1,96.91,330.83Z" style="fill:#fff"></path><path d="M97.65,354.19H96.16l-.09-3.93c-.18-5.3-.4-10.59-.71-15.89-.18-3-.39-6-.71-9,0-.1,0-.21,0-.31s-.07-.48-.09-.73-.07-.52-.1-.78a64,64,0,0,0-5.13-19.48c-.94-2.06-2-4.07-3.07-6.07l-.31-.57a1.19,1.19,0,0,0-.09-.15c-.1-.2-.22-.39-.33-.59l-.25-.44c-3.46-6.07-7.4-11.88-11.14-17.72q-1.62-2.51-3.2-5a1.44,1.44,0,0,1-.19-.31,2.82,2.82,0,0,1-.24-.36c-4.71-7.43-9.34-14.91-14.22-22.19-.19-.27.26-.51.43-.24,3.3,4.83,6.72,9.58,10.11,14.36.45.63.89,1.28,1.35,1.91.9,1.26,1.78,2.52,2.67,3.78,1.77,2.53,3.51,5.06,5.22,7.62,4.8,7.2,9.83,14.46,13.73,22.22.29.58.57,1.17.85,1.76.18.37.35.73.51,1.1s.39.85.58,1.28c3.31,7.6,4.49,15.42,5,23.49,0,.56.07,1.13.1,1.7,0,.25,0,.51,0,.78s0,.28,0,.42,0,.35,0,.54h0c0,.13,0,.27,0,.41,0,.48,0,1,.07,1.45.21,5.3.35,10.6.46,15.88C97.52,350.81,97.58,352.5,97.65,354.19Z" style="fill:#000000"></path><path d="M53.13,258.21c-4.09-5.49-9.32-16.82-3.3-22.71a6.41,6.41,0,0,1,8.53-.63c3.18,2.3,4.6,6.65,5.63,10.25,2.76,9.6,4.59,19.39,8,28.81.06.06.29.8.38,1s-.24.28-.31.09-.23-.62-.35-.92C65.24,269.39,58,264.73,53.13,258.21Z" style="fill:#000000"></path><path d="M72.08,274c0-.05-.06-.11-.1-.16a68.56,68.56,0,0,1-3.82-7.11A136.68,136.68,0,0,1,62.29,251c-.65-2.06-3.59-12.15-7.19-8.13-1.52,1.69-1.3,4.69-1.06,6.76A25.23,25.23,0,0,0,57.17,259c3.24,5.83,8.27,10.24,13.56,14.16l.72.55.15.25a1.06,1.06,0,0,0,.1.17s0,.06.09.07a.22.22,0,0,0,.31-.14A.14.14,0,0,0,72.08,274Zm-1.59-1.11c-4.26-3.37-8.43-7-11.5-11.53a28.55,28.55,0,0,1-3.74-7.64,22.31,22.31,0,0,1-.81-3.71,15.71,15.71,0,0,1-.16-2.83c.06-2.07.92-4.34,2.15-4.55,1.51-.28,2,.61,3,2.35a17.09,17.09,0,0,1,.9,1.82c.67,1.56,1.18,3.18,1.69,4.78.85,2.67,1.71,5.32,2.67,8,.64,1.79,1.34,3.56,2.1,5.29a70.68,70.68,0,0,0,4.47,8.7Z" style="fill:#fff"></path><path d="M414,273.56c-.68,5.45-1.72,10.84-2.82,16.21-.62,3-1.28,6.08-1.89,9.14-.68,3.35-1.68,6.78-.77,10.17h0a2,2,0,0,1,0,.47l0,.06a.41.41,0,0,1-.71-.12l-.06-.23-.05-.07a13.26,13.26,0,0,1-1.17-2.82,70.27,70.27,0,0,1-2.71-7.87,67.67,67.67,0,0,1-2.64-16.79,57,57,0,0,1,1.58-15.12c1-4,2.35-9.85,5.29-12.88,2.68-2.73,4.9,1.65,5.67,3.87C415.49,262.61,414.66,268.41,414,273.56Z" style="fill:#000000"></path><path d="M409.14,262c-2,0-3.42,6.41-4.13,9.18a54.72,54.72,0,0,0-1.69,13.36,71.3,71.3,0,0,0,4.11,23.72c.1.3.2.62.31.92,0,0,0,.05.05.08s0,.14.07.21a.4.4,0,0,0,.7.13c-.12-.67-.22-1.33-.3-2s-.14-1.2-.18-1.79c-.54-6.52.39-13.18,1.22-19.64C410.26,278.59,411.77,262,409.14,262Zm-1.42,45.08c.1.89.24,1.76.4,2.62-.2-.63-.4-1.26-.59-1.9a79.24,79.24,0,0,1-3.75-20.92,57.23,57.23,0,0,1,.88-12,51.51,51.51,0,0,1,1.54-6.26c.28-.86,1.72-6.22,2.94-6,.86.19,1.07,5,1.08,5.12,0,1,0,1.93,0,2.91,0,2-.17,4-.33,6-.38,4.31-1,8.61-1.52,12.91C407.72,295.36,407.05,301.33,407.72,307.09Z" style="fill:#fff"></path><path d="M445.27,288.6c-3.64,7.1-9.78,12.55-16.12,17.22-3.4,2.49-6.91,4.83-10.36,7.25-2.89,2-6.39,4.16-9,6.88-.11.12-.23.24-.34.37a15.33,15.33,0,0,0-1.86,2.56.2.2,0,0,1-.17.11,1.66,1.66,0,0,1-.12.31.07.07,0,0,1-.14,0c0-.11,0-.24,0-.35s0,0,0,0a.22.22,0,0,1,0-.27.6.6,0,0,1,.06-.11c0-.12,0-.24.05-.35,1-8.31,6.85-16.71,11.76-23.11s11-12.05,18.57-15c1.91-.74,6.24-2.76,8.18-1.21C447.63,284.29,446.05,287.09,445.27,288.6Z" style="fill:#000000"></path><path d="M439.64,288.63c-1.73-1.73-6.82,2.54-8.1,3.54A85.22,85.22,0,0,0,421,302.43c-5.38,6-10.19,12.2-13.46,19.48h0l-.18.23a2.39,2.39,0,0,0-.05.36.24.24,0,0,0-.06.11.22.22,0,0,0,0,.28l.25-.29c.64-.79,1.31-1.55,2-2.29.11-.13.23-.25.34-.37,4.75-5.12,10.37-9.43,15.77-13.92a78.42,78.42,0,0,0,10.49-10.2C436.9,294.86,441.1,290.08,439.64,288.63Zm-1.59,3.81c-4.3,7.13-11.75,12.34-18.07,17.54a85.73,85.73,0,0,0-12,11.39c3.18-6.44,7.74-12.23,12.46-17.53A107.87,107.87,0,0,1,429,295a45.24,45.24,0,0,1,5.19-4.16,17.79,17.79,0,0,1,3.52-1.9C440.12,288.26,438.78,291.21,438.05,292.44Z" style="fill:#fff"></path><path d="M406.49,339.81a.47.47,0,0,1-.37.21l.09.13a.12.12,0,0,1,0,.17.12.12,0,0,1-.18,0c-6.73-6.85-13.23-15.18-16.58-24.26A37.61,37.61,0,0,1,387,304.11c-.07-2.8-.22-8.43,2.17-10.47,4.82-4.09,9.21,13.28,9.86,15.9,1.19,4.78,2,9.64,3.08,14.44,1.2,5.25,2.79,10.4,4.37,15.55A.38.38,0,0,1,406.49,339.81Z" style="fill:#000000"></path><path d="M406.49,339.8c-.27-.44-.52-.88-.76-1.34a80.61,80.61,0,0,1-8.67-23.34,75.7,75.7,0,0,0-3.2-12.15c-.39-1-1.6-4.67-3.19-2.79-.82,1-.14,8,.19,9.8a51.47,51.47,0,0,0,3.91,11.93,84.26,84.26,0,0,0,11,17.93c.12.17.25.33.38.48a.12.12,0,0,0,0-.17s-.06-.08-.09-.13A.44.44,0,0,0,406.49,339.8Zm-9.77-14.93a58.82,58.82,0,0,1-4.63-11.58,42.5,42.5,0,0,1-1-4.87,25.4,25.4,0,0,1-.33-3.88c0-3.18.27-4,.81-4.11.32-.06.78.28,1.72,2.17a21,21,0,0,1,1.35,3.86c.49,1.87.92,3.76,1.33,5.65.82,3.78,1.59,7.59,2.69,11.29a62.39,62.39,0,0,0,6.69,15.19A95.28,95.28,0,0,1,396.72,324.87Z" style="fill:#fff"></path><path d="M428.09,323.15a23.78,23.78,0,0,1-4.42,9.18c-4,5.53-9.11,10.11-13.47,15.33-.65.78-1.29,1.58-1.91,2.39-.06.09-.56,1.25-.56,1.15s.08-.46.23-1.2h0c.7-3.66,3-14.7,5.86-20.34a49,49,0,0,1,6.38-10c1.24-1.4,4.15-4.43,6.34-3.77C428.89,316.61,428.43,321.39,428.09,323.15Z" style="fill:#000000"></path><path d="M424.53,320.91c-2.34-1.45-8.37,9.32-9.18,10.71a69.07,69.07,0,0,0-6.88,16.43c-.19.64-.35,1.29-.51,1.95s-.23,1.17-.23,1.2.5-1.05.57-1.15l.31-.42c.52-.67,1.05-1.33,1.58-2,2.62-3.92,5.32-7.8,7.86-11.79a64,64,0,0,0,4.87-8.95C423.22,326.22,425.56,321.55,424.53,320.91Zm-.67,3c-3.32,9.37-10.11,16.75-15.3,25.07l-.25.41c.08-.24.14-.5.22-.74A77.45,77.45,0,0,1,414,335a74.48,74.48,0,0,1,4.62-7.71,37.71,37.71,0,0,1,2.89-4c.48-.53,1.86-1.93,2.32-1.69C424.53,321.92,424.08,323.33,423.86,324Z" style="fill:#fff"></path><path d="M451.58,245.81c-6.95,16-25.19,23.41-33.1,38.8a.2.2,0,0,1,0,.08c-.24.47-.47.95-.69,1.43a.31.31,0,0,1-.52.08.22.22,0,0,1,0-.26,2.72,2.72,0,0,1,.16-.35c1.23-9.6,5.17-19.48,9.76-27.95,4-7.36,9.46-14.25,17-18.12,1.86-1,5.51-3,7.6-1.4S452.44,243.84,451.58,245.81Z" style="fill:#000000"></path><path d="M445.32,246.5c-.88-.66-2.22.14-3,.53a26.77,26.77,0,0,0-5.28,3.6,44.34,44.34,0,0,0-8.4,10,90.53,90.53,0,0,0-9.92,20.09c-.53,1.6-1,3.22-1.38,4.87-.05.2-.08.4-.14.6a.34.34,0,0,0,.54-.07c.2-.48.43-.93.65-1.39l.07-.13a53.86,53.86,0,0,1,4.95-9.1c3.05-4.44,6.83-8.35,10.41-12.35C435.26,261.6,448.38,248.74,445.32,246.5Zm-1.11,3.69c-2.11,3.76-5.39,6.82-8.25,10s-5.8,6.41-8.63,9.68a60.55,60.55,0,0,0-6.08,8.3,46.23,46.23,0,0,0-3.81,7.69,65.93,65.93,0,0,1,2.72-8,.16.16,0,0,1,0-.09A119.46,119.46,0,0,1,427,264.35a1.29,1.29,0,0,1,.09-.16,54.64,54.64,0,0,1,7.69-10.74,31.16,31.16,0,0,1,5.47-4.65c2.29-1.48,4.29-2.44,4.86-1.71C445.44,247.6,444.84,249.09,444.21,250.19Z" style="fill:#fff"></path><path d="M427.3,264.53c-2.08,4.5-4.08,9.07-6.05,13.64q-1.41,3.22-2.77,6.44l-.07.13-1,2.32c-3,7-6.32,14.18-8.15,21.6a65.45,65.45,0,0,0-1.67,12c0,.42,0,.83-.06,1.25h0c0,.23,0,.46,0,.69s0,.25,0,.38c-.13,3.5-.07,7,0,10.43.09,4.77.49,9.5.95,14.21a3,3,0,0,0,0,.42l.06.64,0,.33c0,.2,0,.41.05.61.16,1.52.29,3,.42,4.56h-1.45a94,94,0,0,1-1.76-14.06,2.81,2.81,0,0,1,0-.29c0-.45-.07-.92-.08-1.38s-.06-1.12-.08-1.69c0-1.37-.08-2.72-.11-4.06-.14-7.79-.05-15.91,1.67-23.54l.15-.64a1.45,1.45,0,0,1,.07-.26,3.78,3.78,0,0,1,.1-.46l.19-.72c.11-.43.24-.86.36-1.27l.12-.38c2-6.67,5.16-13.13,8-19.39.53-1.15,1.06-2.29,1.6-3.43.31-.63.61-1.26.91-1.89l1.42-2.86a.16.16,0,0,1,0-.09c2.22-4.49,4.54-8.93,6.74-13.43C427.05,264.15,427.4,264.31,427.3,264.53Z" style="fill:#000000"></path></g><g id="freepik--Floor--inject-44"><polygon points="46.12 354.19 97.09 353.95 148.06 353.86 250 353.69 351.94 353.86 402.91 353.95 453.88 354.19 402.91 354.44 351.94 354.53 250 354.69 148.06 354.53 97.09 354.44 46.12 354.19" style="fill:#263238"></polygon></g><g id="freepik--Sparkles--inject-44"><polygon points="178.25 377.24 189.17 379.26 191.6 390.76 194.04 379.26 204.95 377.23 194.09 374.58 191.6 363.71 189.12 374.58 178.25 377.24" style="fill:#000000"></polygon><polygon points="151.71 106.97 162.62 108.99 165.06 120.49 167.49 108.99 178.4 106.97 167.54 104.31 165.06 93.45 162.57 104.31 151.71 106.97" style="fill:#000000"></polygon><polygon points="265.22 129.53 271.32 130.66 272.68 137.09 274.05 130.66 280.14 129.53 274.07 128.05 272.68 121.98 271.29 128.05 265.22 129.53" style="fill:#000000"></polygon><polygon points="333.05 197.44 339.14 198.56 340.51 204.99 341.87 198.56 347.97 197.43 341.89 195.95 340.51 189.88 339.12 195.95 333.05 197.44" style="fill:#000000"></polygon><polygon points="61.89 398.99 67.99 400.12 69.35 406.55 70.71 400.12 76.81 398.99 70.74 397.51 69.35 391.43 67.96 397.51 61.89 398.99" style="fill:#000000"></polygon><polygon points="165.33 393.87 171.43 395 172.79 401.43 174.16 395 180.25 393.87 174.18 392.39 172.79 386.31 171.41 392.39 165.33 393.87" style="fill:#000000"></polygon><polygon points="180.44 133.63 186.53 134.76 187.9 141.19 189.26 134.76 195.36 133.63 189.28 132.15 187.9 126.07 186.51 132.15 180.44 133.63" style="fill:#000000"></polygon><polygon points="121.8 183.22 127.9 184.35 129.26 190.78 130.63 184.35 136.72 183.22 130.65 181.74 129.26 175.66 127.88 181.74 121.8 183.22" style="fill:#000000"></polygon><polygon points="316.71 394.55 322.81 395.68 324.17 402.1 325.53 395.68 331.63 394.55 325.56 393.06 324.17 386.99 322.78 393.06 316.71 394.55" style="fill:#000000"></polygon><polygon points="368.57 415.23 374.66 416.36 376.03 422.79 377.39 416.36 383.49 415.23 377.42 413.75 376.03 407.68 374.64 413.75 368.57 415.23" style="fill:#000000"></polygon><polygon points="343.9 109.19 350 110.31 351.36 116.74 352.72 110.31 358.82 109.18 352.75 107.7 351.36 101.63 349.97 107.7 343.9 109.19" style="fill:#000000"></polygon><path d="M440.25,400.78a1.77,1.77,0,0,1,0,3.53A1.77,1.77,0,0,1,440.25,400.78Z" style="fill:#000000"></path><path d="M217.59,103.83a1.77,1.77,0,0,1,0,3.53A1.77,1.77,0,0,1,217.59,103.83Z" style="fill:#000000"></path><path d="M413.1,386.77a1.77,1.77,0,0,1,0,3.54A1.77,1.77,0,0,1,413.1,386.77Z" style="fill:#000000"></path><path d="M311.22,123.81a1.77,1.77,0,0,1,0,3.54A1.77,1.77,0,0,1,311.22,123.81Z" style="fill:#000000"></path><path d="M226.68,386.15a1.77,1.77,0,0,1,0,3.53A1.77,1.77,0,0,1,226.68,386.15Z" style="fill:#000000"></path><path d="M89.12,393.23a1.26,1.26,0,0,1,0,2.51A1.26,1.26,0,0,1,89.12,393.23Z" style="fill:#000000"></path><path d="M155.66,421.32a1.25,1.25,0,0,1,0,2.5A1.25,1.25,0,0,1,155.66,421.32Z" style="fill:#000000"></path><path d="M282.65,427.6a1.25,1.25,0,0,1,0,2.5A1.25,1.25,0,0,1,282.65,427.6Z" style="fill:#000000"></path><path d="M305.67,101.73a1.25,1.25,0,0,1,0,2.5A1.25,1.25,0,0,1,305.67,101.73Z" style="fill:#000000"></path><path d="M234.81,94.31c4.36,0,4.37,6.78,0,6.78S230.44,94.31,234.81,94.31Z" style="fill:#000000"></path><path d="M292.1,416.09c4.36,0,4.37,6.78,0,6.78S287.73,416.09,292.1,416.09Z" style="fill:#000000"></path><path d="M322.46,350.32c4.36,0,4.37,6.78,0,6.78S318.09,350.32,322.46,350.32Z" style="fill:#000000"></path><g style="opacity:0.8"><polygon points="178.25 377.24 189.17 379.26 191.6 390.76 194.04 379.26 204.95 377.23 194.09 374.58 191.6 363.71 189.12 374.58 178.25 377.24" style="fill:#fff"></polygon><polygon points="151.71 106.97 162.62 108.99 165.06 120.49 167.49 108.99 178.4 106.97 167.54 104.31 165.06 93.45 162.57 104.31 151.71 106.97" style="fill:#fff"></polygon><polygon points="265.22 129.53 271.32 130.66 272.68 137.09 274.05 130.66 280.14 129.53 274.07 128.05 272.68 121.98 271.29 128.05 265.22 129.53" style="fill:#fff"></polygon><polygon points="333.05 197.44 339.14 198.56 340.51 204.99 341.87 198.56 347.97 197.43 341.89 195.95 340.51 189.88 339.12 195.95 333.05 197.44" style="fill:#fff"></polygon><polygon points="61.89 398.99 67.99 400.12 69.35 406.55 70.71 400.12 76.81 398.99 70.74 397.51 69.35 391.43 67.96 397.51 61.89 398.99" style="fill:#fff"></polygon><polygon points="165.33 393.87 171.43 395 172.79 401.43 174.16 395 180.25 393.87 174.18 392.39 172.79 386.31 171.41 392.39 165.33 393.87" style="fill:#fff"></polygon><polygon points="180.44 133.63 186.53 134.76 187.9 141.19 189.26 134.76 195.36 133.63 189.28 132.15 187.9 126.07 186.51 132.15 180.44 133.63" style="fill:#fff"></polygon><polygon points="121.8 183.22 127.9 184.35 129.26 190.78 130.63 184.35 136.72 183.22 130.65 181.74 129.26 175.66 127.88 181.74 121.8 183.22" style="fill:#fff"></polygon><polygon points="316.71 394.55 322.81 395.68 324.17 402.1 325.53 395.68 331.63 394.55 325.56 393.06 324.17 386.99 322.78 393.06 316.71 394.55" style="fill:#fff"></polygon><polygon points="368.57 415.23 374.66 416.36 376.03 422.79 377.39 416.36 383.49 415.23 377.42 413.75 376.03 407.68 374.64 413.75 368.57 415.23" style="fill:#fff"></polygon><polygon points="343.9 109.19 350 110.31 351.36 116.74 352.72 110.31 358.82 109.18 352.75 107.7 351.36 101.63 349.97 107.7 343.9 109.19" style="fill:#fff"></polygon><path d="M440.25,400.78a1.77,1.77,0,0,1,0,3.53A1.77,1.77,0,0,1,440.25,400.78Z" style="fill:#fff"></path><path d="M217.59,103.83a1.77,1.77,0,0,1,0,3.53A1.77,1.77,0,0,1,217.59,103.83Z" style="fill:#fff"></path><path d="M413.1,386.77a1.77,1.77,0,0,1,0,3.54A1.77,1.77,0,0,1,413.1,386.77Z" style="fill:#fff"></path><path d="M311.22,123.81a1.77,1.77,0,0,1,0,3.54A1.77,1.77,0,0,1,311.22,123.81Z" style="fill:#fff"></path><path d="M226.68,386.15a1.77,1.77,0,0,1,0,3.53A1.77,1.77,0,0,1,226.68,386.15Z" style="fill:#fff"></path><path d="M89.12,393.23a1.26,1.26,0,0,1,0,2.51A1.26,1.26,0,0,1,89.12,393.23Z" style="fill:#fff"></path><path d="M155.66,421.32a1.25,1.25,0,0,1,0,2.5A1.25,1.25,0,0,1,155.66,421.32Z" style="fill:#fff"></path><path d="M282.65,427.6a1.25,1.25,0,0,1,0,2.5A1.25,1.25,0,0,1,282.65,427.6Z" style="fill:#fff"></path><path d="M305.67,101.73a1.25,1.25,0,0,1,0,2.5A1.25,1.25,0,0,1,305.67,101.73Z" style="fill:#fff"></path><path d="M234.81,94.31c4.36,0,4.37,6.78,0,6.78S230.44,94.31,234.81,94.31Z" style="fill:#fff"></path><path d="M292.1,416.09c4.36,0,4.37,6.78,0,6.78S287.73,416.09,292.1,416.09Z" style="fill:#fff"></path><path d="M322.46,350.32c4.36,0,4.37,6.78,0,6.78S318.09,350.32,322.46,350.32Z" style="fill:#fff"></path></g></g><g id="freepik--Clovers--inject-44"><path d="M393.71,196.1s-3.45-9.3-3-18.14c.42-9,4.65-12.33,7-12.73s5.25,6,4.51,12.37c0,0,7.4-10.23,13.65-6.52S410.13,189.24,393.71,196.1Z" style="fill:#455a64"></path><path d="M393.85,195.88s5.37-2.93,14.75-4.48c7.19-1.2,17.2,2.24,17.18,5.72S415.72,201,415.72,201s7.23,5,4.51,9.34S401.44,207.46,393.85,195.88Z" style="fill:#455a64"></path><path d="M393.58,195.56s-4-11-9.71-15.85-12.54-5.85-14.14-3.07,7.88,9.29,7.88,9.29-11.33-.48-11.7,5.25S380.4,199.47,393.58,195.56Z" style="fill:#455a64"></path><path d="M393.94,195.68s4.16,8.11,5.1,14.66-1.45,11.71-4.1,12.06-6.19-4.91-5.23-10.45c0,0-5.64,7.08-10.18,4.12S383.44,202.28,393.94,195.68Z" style="fill:#455a64"></path><path d="M413.65,201.25a37.72,37.72,0,0,0-19.37-5.09c3.75-5.16,6-11.53,7.73-17.58,0-.12-.15-.19-.18-.06C399.9,184.59,394,196,394,196c-1.37-2.13-3.89-3.86-6-5.21a35.67,35.67,0,0,0-7.89-3.68.11.11,0,0,0-.07.2,37.14,37.14,0,0,1,7.55,4.06c2.18,1.49,6.21,5,6.25,5-.63,4.91-2.33,9.32-3.73,14a.17.17,0,0,0,.31.12c2.06-4.31,3.75-9.28,3.7-14.11a59.58,59.58,0,0,1,19.36,5A.13.13,0,0,0,413.65,201.25Z" style="fill:#37474f"></path><path d="M146.37,321.65s-3.25-7.49-3.31-14.78c-.07-7.45,3.27-10.36,5.16-10.79s4.6,4.66,4.28,10c0,0,5.62-8.75,10.93-6S159.57,315.27,146.37,321.65Z" style="fill:#455a64"></path><path d="M146.48,321.47a41.92,41.92,0,0,1,11.93-4.36c5.86-1.3,14.25,1.07,14.39,3.94s-8.1,3.6-8.1,3.6,6.18,3.81,4.13,7.49S153.25,330.65,146.48,321.47Z" style="fill:#455a64"></path><path d="M146.24,321.22s-3.81-8.88-8.7-12.61-10.58-4.25-11.77-1.89,6.9,7.29,6.9,7.29-9.34.12-9.39,4.84S135.57,325,146.24,321.22Z" style="fill:#455a64"></path><path d="M146.55,321.3s3.78,6.48,4.85,11.83-.67,9.69-2.83,10.1-5.31-3.76-4.77-8.36c0,0-4.32,6.08-8.19,3.85S138.2,327.19,146.55,321.3Z" style="fill:#455a64"></path><path d="M163,325a30.91,30.91,0,0,0-16.17-3.32c2.86-4.42,4.4-9.76,5.58-14.81,0-.1-.13-.15-.16-.05-1.31,5.08-5.63,14.74-5.63,14.76a16.55,16.55,0,0,0-5.15-4,29.47,29.47,0,0,0-6.65-2.67.08.08,0,1,0-.05.16,31.56,31.56,0,0,1,6.39,3c1.86,1.13,5.34,3.83,5.36,3.83-.29,4.06-1.5,7.77-2.44,11.7a.14.14,0,0,0,.27.09,27.22,27.22,0,0,0,2.41-11.78,48.85,48.85,0,0,1,16.15,3.29C163,325.23,163.12,325.05,163,325Z" style="fill:#37474f"></path><path d="M367.27,346.68s-6.8-4.54-10.8-10.64-2.85-10.47-1.49-11.87,6.39,1.44,9,6.08c0,0,0-10.41,6-10.95S374.91,334.17,367.27,346.68Z" style="fill:#455a64"></path><path d="M367.26,346.46a41.7,41.7,0,0,1,7.67-10.11c4.23-4.28,12.56-6.82,14.24-4.48s-4.87,7.41-4.87,7.41,7.26-.14,7.52,4.06S377.92,350.52,367.26,346.46Z" style="fill:#455a64"></path><path d="M366.92,346.38s-8-5.4-14.13-5.89-11.21,2.15-10.93,4.78,9.75,2.4,9.75,2.4-7.79,5.15-5.28,9.15S360,355.35,366.92,346.38Z" style="fill:#455a64"></path><path d="M367.22,346.29s6.69,3.4,10.48,7.32,4.69,8.51,3.09,10-6.5-.29-8.54-4.45c0,0-.34,7.45-4.8,7.66S363.4,355.76,367.22,346.29Z" style="fill:#455a64"></path><path d="M383.07,340.48a31.17,31.17,0,0,0-15.4,6c0-5.26-1.58-10.57-3.32-15.46,0-.1-.19-.06-.16,0,1.65,5,3.24,15.44,3.25,15.46a16.38,16.38,0,0,0-6.5-.58,28.74,28.74,0,0,0-7,1.35.08.08,0,0,0,.05.16,31.19,31.19,0,0,1,7-.93c2.17-.06,6.56.33,6.58.31,2,3.57,2.94,7.34,4.28,11.16a.14.14,0,0,0,.27-.07,27.32,27.32,0,0,0-4.35-11.21,49.22,49.22,0,0,1,15.37-6C383.21,340.67,383.19,340.47,383.07,340.48Z" style="fill:#37474f"></path><path d="M109.93,266.51s-13-2.79-22.61-9.6c-9.88-7-10.56-14.09-9.34-17s10.48-1.65,17.18,3.79c0,0-6.22-15.68,2.46-20S114,243.08,109.93,266.51Z" style="fill:#455a64"></path><path d="M109.79,266.19s.55-8.15,5.53-19.83c3.82-9,14.88-17.77,18.79-15.25s-2.9,14.08-2.9,14.08,10.85-4.54,13.76,1.63S128.29,266,109.79,266.19Z" style="fill:#455a64"></path><path d="M109.24,266.27s-15.31-3.36-24.83-.45-15.6,9.93-13.62,13.73,16.13-2.2,16.13-2.2-8.67,12.42-2.49,16.95S104.17,283.92,109.24,266.27Z" style="fill:#455a64"></path><path d="M109.63,266s12.12,1.13,20.18,4.78,12.14,10,10.64,13.28-10,3.44-15.53-1.61c0,0,3.93,11.43-2.67,14.42S109.52,282.51,109.63,266Z" style="fill:#455a64"></path><path d="M130.06,247.74a50.3,50.3,0,0,0-19.65,18.17c-3.12-7.94-8.7-15-14.25-21.33-.11-.13-.32,0-.21.16,5.46,6.53,14.11,21.35,14.14,21.37-3.39,0-7.14,1.62-10.15,3a47.21,47.21,0,0,0-9.81,6.23.14.14,0,0,0,.17.23,49.7,49.7,0,0,1,10-5.59c3.24-1.39,10.08-3.42,10.1-3.46,5.08,4.22,8.83,9.32,13.13,14.28a.23.23,0,0,0,.36-.28c-3.38-5.41-7.76-10.88-13.24-14.3A79.37,79.37,0,0,1,130.23,248C130.39,247.93,130.23,247.65,130.06,247.74Z" style="fill:#37474f"></path></g></svg>